<?xml version="1.0" encoding="UTF-8" standalone="no"?>
<svg
   xmlns:dc="http://purl.org/dc/elements/1.1/"
   xmlns:cc="http://creativecommons.org/ns#"
   xmlns:rdf="http://www.w3.org/1999/02/22-rdf-syntax-ns#"
   xmlns:svg="http://www.w3.org/2000/svg"
   xmlns="http://www.w3.org/2000/svg"
   viewBox="0 0 270.32001 133.34666"
   height="133.34666"
   width="270.32001"
   xml:space="preserve"
   style="background-color:white"
   id="svg2"
   version="1.1"><metadata
     id="metadata8"><rdf:RDF><cc:Work
         rdf:about=""><dc:format>image/svg+xml</dc:format><dc:type
           rdf:resource="http://purl.org/dc/dcmitype/StillImage" /></cc:Work></rdf:RDF></metadata><defs
     id="defs6"><clipPath
       id="clipPath84"
       clipPathUnits="userSpaceOnUse"><path
         id="path82"
         d="M 196.641,534.91 H 2026.14" /></clipPath><linearGradient
       id="linearGradient90"
       spreadMethod="pad"
       gradientTransform="matrix(1829.5,0,0,-1829.5,196.639,534.911)"
       gradientUnits="userSpaceOnUse"
       y2="0"
       x2="1"
       y1="0"
       x1="0"><stop
         id="stop86"
         offset="0"
         style="stop-opacity:1;stop-color:#ffffff" /><stop
         id="stop88"
         offset="1"
         style="stop-opacity:1;stop-color:#211c1c" /></linearGradient></defs><g
     transform="matrix(1.3333333,0,0,-1.3333333,0,133.34667)"
     id="g10"><g
       transform="scale(0.1)"
       id="g12"><path
         id="path14"
         style="fill:none;stroke:#100f0d;stroke-width:0.625;stroke-linecap:butt;stroke-linejoin:miter;stroke-miterlimit:3.79999995;stroke-dasharray:5, 10;stroke-dashoffset:0;stroke-opacity:1"
         d="M 196.641,198.906 H 2026.14" /><path
         id="path16"
         style="fill:none;stroke:#100f0d;stroke-width:2.5;stroke-linecap:butt;stroke-linejoin:miter;stroke-miterlimit:3.79999995;stroke-dasharray:none;stroke-opacity:1"
         d="m 196.641,198.906 h 31.5" /><g
         transform="scale(10)"
         id="g18"><text
           id="text22"
           style="font-variant:normal;font-weight:normal;font-size:6px;font-family:Helvetica;-inkscape-font-specification:Helvetica;writing-mode:lr-tb;fill:#100f0d;fill-opacity:1;fill-rule:nonzero;stroke:none"
           transform="matrix(1,0,0,-1,6.72188,17.2926)"><tspan
             id="tspan20"
             y="0"
             x="0 3.3369102">10</tspan></text>
<text
           id="text26"
           style="font-variant:normal;font-weight:normal;font-size:4.80000019px;font-family:Helvetica;-inkscape-font-specification:Helvetica;writing-mode:lr-tb;fill:#100f0d;fill-opacity:1;fill-rule:nonzero;stroke:none"
           transform="matrix(1,0,0,-1,13.39376,20.2926)"><tspan
             id="tspan24"
             y="0"
             x="0">0</tspan></text>
</g><path
         id="path28"
         style="fill:none;stroke:#100f0d;stroke-width:2.5;stroke-linecap:butt;stroke-linejoin:miter;stroke-miterlimit:3.79999995;stroke-dasharray:none;stroke-opacity:1"
         d="m 196.641,278.906 h 15.5 m -15.5,-3.992 h 15.5 m -15.5,-5 h 15.5 m -15.5,-5.496 h 15.5 m -15.5,-7.004 h 15.5 m -15.5,-7.996 h 15.5 m -15.5,-10.512 h 15.5 m -15.5,-14.488 h 15.5" /><path
         id="path30"
         style="fill:none;stroke:#828484;stroke-width:0.625;stroke-linecap:butt;stroke-linejoin:miter;stroke-miterlimit:3.79999995;stroke-dasharray:5, 10;stroke-dashoffset:0;stroke-opacity:1"
         d="M 196.641,282.91 H 2026.14" /><path
         id="path32"
         style="fill:none;stroke:#100f0d;stroke-width:2.5;stroke-linecap:butt;stroke-linejoin:miter;stroke-miterlimit:3.79999995;stroke-dasharray:none;stroke-opacity:1"
         d="m 196.641,282.91 h 31.5" /><g
         transform="scale(10)"
         id="g34"><text
           id="text38"
           style="font-variant:normal;font-weight:normal;font-size:6px;font-family:Helvetica;-inkscape-font-specification:Helvetica;writing-mode:lr-tb;fill:#100f0d;fill-opacity:1;fill-rule:nonzero;stroke:none"
           transform="matrix(1,0,0,-1,6.72188,25.691)"><tspan
             id="tspan36"
             y="0"
             x="0 3.3369102">10</tspan></text>
<text
           id="text42"
           style="font-variant:normal;font-weight:normal;font-size:4.80000019px;font-family:Helvetica;-inkscape-font-specification:Helvetica;writing-mode:lr-tb;fill:#100f0d;fill-opacity:1;fill-rule:nonzero;stroke:none"
           transform="matrix(1,0,0,-1,13.39376,28.691)"><tspan
             id="tspan40"
             y="0"
             x="0">1</tspan></text>
</g><path
         id="path44"
         style="fill:none;stroke:#100f0d;stroke-width:2.5;stroke-linecap:butt;stroke-linejoin:miter;stroke-miterlimit:3.79999995;stroke-dasharray:none;stroke-opacity:1"
         d="m 196.641,362.91 h 15.5 m -15.5,-4.004 h 15.5 m -15.5,-5 h 15.5 m -15.5,-5.496 h 15.5 m -15.5,-7.004 h 15.5 m -15.5,-7.996 h 15.5 m -15.5,-10.5 h 15.5 m -15.5,-14.5 h 15.5" /><path
         id="path46"
         style="fill:none;stroke:#828484;stroke-width:0.625;stroke-linecap:butt;stroke-linejoin:miter;stroke-miterlimit:3.79999995;stroke-dasharray:5, 10;stroke-dashoffset:0;stroke-opacity:1"
         d="M 196.641,366.918 H 2026.14" /><path
         id="path48"
         style="fill:none;stroke:#100f0d;stroke-width:2.5;stroke-linecap:butt;stroke-linejoin:miter;stroke-miterlimit:3.79999995;stroke-dasharray:none;stroke-opacity:1"
         d="m 196.641,366.918 h 31.5" /><g
         transform="scale(10)"
         id="g50"><text
           id="text54"
           style="font-variant:normal;font-weight:normal;font-size:6px;font-family:Helvetica;-inkscape-font-specification:Helvetica;writing-mode:lr-tb;fill:#100f0d;fill-opacity:1;fill-rule:nonzero;stroke:none"
           transform="matrix(1,0,0,-1,6.72188,34.0895)"><tspan
             id="tspan52"
             y="0"
             x="0 3.3369102">10</tspan></text>
<text
           id="text58"
           style="font-variant:normal;font-weight:normal;font-size:4.80000019px;font-family:Helvetica;-inkscape-font-specification:Helvetica;writing-mode:lr-tb;fill:#100f0d;fill-opacity:1;fill-rule:nonzero;stroke:none"
           transform="matrix(1,0,0,-1,13.39376,37.0895)"><tspan
             id="tspan56"
             y="0"
             x="0">2</tspan></text>
</g><path
         id="path60"
         style="fill:none;stroke:#100f0d;stroke-width:2.5;stroke-linecap:butt;stroke-linejoin:miter;stroke-miterlimit:3.79999995;stroke-dasharray:none;stroke-opacity:1"
         d="m 196.641,446.918 h 15.5 m -15.5,-4.008 h 15.5 m -15.5,-5 h 15.5 m -15.5,-5.496 h 15.5 m -15.5,-7.004 h 15.5 m -15.5,-7.996 h 15.5 m -15.5,-10.496 h 15.5 m -15.5,-14.504 h 15.5" /><path
         id="path62"
         style="fill:none;stroke:#828484;stroke-width:0.625;stroke-linecap:butt;stroke-linejoin:miter;stroke-miterlimit:3.79999995;stroke-dasharray:5, 10;stroke-dashoffset:0;stroke-opacity:1"
         d="M 196.641,450.91 H 2026.14" /><path
         id="path64"
         style="fill:none;stroke:#100f0d;stroke-width:2.5;stroke-linecap:butt;stroke-linejoin:miter;stroke-miterlimit:3.79999995;stroke-dasharray:none;stroke-opacity:1"
         d="m 196.641,450.91 h 31.5" /><g
         transform="scale(10)"
         id="g66"><text
           id="text70"
           style="font-variant:normal;font-weight:normal;font-size:6px;font-family:Helvetica;-inkscape-font-specification:Helvetica;writing-mode:lr-tb;fill:#100f0d;fill-opacity:1;fill-rule:nonzero;stroke:none"
           transform="matrix(1,0,0,-1,6.72188,42.4879)"><tspan
             id="tspan68"
             y="0"
             x="0 3.3369102">10</tspan></text>
<text
           id="text74"
           style="font-variant:normal;font-weight:normal;font-size:4.80000019px;font-family:Helvetica;-inkscape-font-specification:Helvetica;writing-mode:lr-tb;fill:#100f0d;fill-opacity:1;fill-rule:nonzero;stroke:none"
           transform="matrix(1,0,0,-1,13.39376,45.4879)"><tspan
             id="tspan72"
             y="0"
             x="0">3</tspan></text>
</g><path
         id="path76"
         style="fill:none;stroke:#100f0d;stroke-width:2.5;stroke-linecap:butt;stroke-linejoin:miter;stroke-miterlimit:3.79999995;stroke-dasharray:none;stroke-opacity:1"
         d="m 196.641,530.91 h 15.5 m -15.5,-4 h 15.5 m -15.5,-5 h 15.5 m -15.5,-5.496 h 15.5 m -15.5,-7.004 h 15.5 m -15.5,-7.996 h 15.5 m -15.5,-10.504 h 15.5 m -15.5,-14.504 h 15.5" /><g
         id="g78"><g
           clip-path="url(#clipPath84)"
           id="g80"><path
             id="path92"
             style="fill:url(#linearGradient90);fill-opacity:1;fill-rule:nonzero;stroke:none"
             d="M 196.641,534.91 H 2026.14" /></g></g><path
         id="path94"
         style="fill:none;stroke:#828484;stroke-width:0.625;stroke-linecap:butt;stroke-linejoin:miter;stroke-miterlimit:3.79999995;stroke-dasharray:5, 10;stroke-dashoffset:0;stroke-opacity:1"
         d="M 196.641,534.91 H 2026.14" /><path
         id="path96"
         style="fill:none;stroke:#100f0d;stroke-width:2.5;stroke-linecap:butt;stroke-linejoin:miter;stroke-miterlimit:3.79999995;stroke-dasharray:none;stroke-opacity:1"
         d="m 196.641,534.91 h 31.5" /><g
         transform="scale(10)"
         id="g98"><text
           id="text102"
           style="font-variant:normal;font-weight:normal;font-size:6px;font-family:Helvetica;-inkscape-font-specification:Helvetica;writing-mode:lr-tb;fill:#100f0d;fill-opacity:1;fill-rule:nonzero;stroke:none"
           transform="matrix(1,0,0,-1,6.72188,50.8863)"><tspan
             id="tspan100"
             y="0"
             x="0 3.3369102">10</tspan></text>
<text
           id="text106"
           style="font-variant:normal;font-weight:normal;font-size:4.80000019px;font-family:Helvetica;-inkscape-font-specification:Helvetica;writing-mode:lr-tb;fill:#100f0d;fill-opacity:1;fill-rule:nonzero;stroke:none"
           transform="matrix(1,0,0,-1,13.39376,53.8863)"><tspan
             id="tspan104"
             y="0"
             x="0">4</tspan></text>
</g><path
         id="path108"
         style="fill:none;stroke:#100f0d;stroke-width:2.5;stroke-linecap:butt;stroke-linejoin:miter;stroke-miterlimit:3.79999995;stroke-dasharray:none;stroke-opacity:1"
         d="m 196.641,614.91 h 15.5 m -15.5,-4 h 15.5 m -15.5,-5 h 15.5 m -15.5,-5.5 h 15.5 m -15.5,-7 h 15.5 m -15.5,-8 h 15.5 m -15.5,-10.5 h 15.5 m -15.5,-14.5 h 15.5" /><path
         id="path110"
         style="fill:none;stroke:#828484;stroke-width:0.625;stroke-linecap:butt;stroke-linejoin:miter;stroke-miterlimit:3.79999995;stroke-dasharray:5, 10;stroke-dashoffset:0;stroke-opacity:1"
         d="M 196.641,618.914 H 2026.14" /><path
         id="path112"
         style="fill:none;stroke:#100f0d;stroke-width:2.5;stroke-linecap:butt;stroke-linejoin:miter;stroke-miterlimit:3.79999995;stroke-dasharray:none;stroke-opacity:1"
         d="m 196.641,618.914 h 31.5" /><g
         transform="scale(10)"
         id="g114"><text
           id="text118"
           style="font-variant:normal;font-weight:normal;font-size:6px;font-family:Helvetica;-inkscape-font-specification:Helvetica;writing-mode:lr-tb;fill:#100f0d;fill-opacity:1;fill-rule:nonzero;stroke:none"
           transform="matrix(1,0,0,-1,6.72188,59.2848)"><tspan
             id="tspan116"
             y="0"
             x="0 3.3369102">10</tspan></text>
<text
           id="text122"
           style="font-variant:normal;font-weight:normal;font-size:4.80000019px;font-family:Helvetica;-inkscape-font-specification:Helvetica;writing-mode:lr-tb;fill:#100f0d;fill-opacity:1;fill-rule:nonzero;stroke:none"
           transform="matrix(1,0,0,-1,13.39376,62.29261)"><tspan
             id="tspan120"
             y="0"
             x="0">5</tspan></text>
</g><path
         id="path124"
         style="fill:none;stroke:#100f0d;stroke-width:2.5;stroke-linecap:butt;stroke-linejoin:miter;stroke-miterlimit:3.79999995;stroke-dasharray:none;stroke-opacity:1"
         d="m 196.641,698.914 h 15.5 m -15.5,-4.004 h 15.5 m -15.5,-5 h 15.5 m -15.5,-5.5 h 15.5 m -15.5,-7 h 15.5 m -15.5,-8 h 15.5 m -15.5,-10.496 h 15.5 m -15.5,-14.504 h 15.5" /><path
         id="path126"
         style="fill:none;stroke:#828484;stroke-width:0.625;stroke-linecap:butt;stroke-linejoin:miter;stroke-miterlimit:3.79999995;stroke-dasharray:5, 10;stroke-dashoffset:0;stroke-opacity:1"
         d="M 196.641,702.91 H 2026.14" /><path
         id="path128"
         style="fill:none;stroke:#100f0d;stroke-width:2.5;stroke-linecap:butt;stroke-linejoin:miter;stroke-miterlimit:3.79999995;stroke-dasharray:none;stroke-opacity:1"
         d="m 196.641,702.91 h 31.5" /><g
         transform="scale(10)"
         id="g130"><text
           id="text134"
           style="font-variant:normal;font-weight:normal;font-size:6px;font-family:Helvetica;-inkscape-font-specification:Helvetica;writing-mode:lr-tb;fill:#100f0d;fill-opacity:1;fill-rule:nonzero;stroke:none"
           transform="matrix(1,0,0,-1,6.72188,67.691)"><tspan
             id="tspan132"
             y="0"
             x="0 3.3369102">10</tspan></text>
<text
           id="text138"
           style="font-variant:normal;font-weight:normal;font-size:4.80000019px;font-family:Helvetica;-inkscape-font-specification:Helvetica;writing-mode:lr-tb;fill:#100f0d;fill-opacity:1;fill-rule:nonzero;stroke:none"
           transform="matrix(1,0,0,-1,13.39376,70.691)"><tspan
             id="tspan136"
             y="0"
             x="0">6</tspan></text>
</g><path
         id="path140"
         style="fill:none;stroke:#100f0d;stroke-width:2.5;stroke-linecap:butt;stroke-linejoin:miter;stroke-miterlimit:3.79999995;stroke-dasharray:none;stroke-opacity:1"
         d="m 196.641,782.91 h 15.5 m -15.5,-3.996 h 15.5 m -15.5,-5 h 15.5 m -15.5,-5.504 h 15.5 m -15.5,-6.996 h 15.5 m -15.5,-8.004 h 15.5 m -15.5,-10.5 h 15.5 m -15.5,-14.5 h 15.5" /><path
         id="path142"
         style="fill:none;stroke:#828484;stroke-width:0.625;stroke-linecap:butt;stroke-linejoin:miter;stroke-miterlimit:3.79999995;stroke-dasharray:5, 10;stroke-dashoffset:0;stroke-opacity:1"
         d="M 196.641,786.91 H 2026.14" /><path
         id="path144"
         style="fill:none;stroke:#100f0d;stroke-width:2.5;stroke-linecap:butt;stroke-linejoin:miter;stroke-miterlimit:3.79999995;stroke-dasharray:none;stroke-opacity:1"
         d="m 196.641,786.91 h 31.5" /><g
         transform="scale(10)"
         id="g146"><text
           id="text150"
           style="font-variant:normal;font-weight:normal;font-size:6px;font-family:Helvetica;-inkscape-font-specification:Helvetica;writing-mode:lr-tb;fill:#100f0d;fill-opacity:1;fill-rule:nonzero;stroke:none"
           transform="matrix(1,0,0,-1,6.72188,76.0895)"><tspan
             id="tspan148"
             y="0"
             x="0 3.3369102">10</tspan></text>
<text
           id="text154"
           style="font-variant:normal;font-weight:normal;font-size:4.80000019px;font-family:Helvetica;-inkscape-font-specification:Helvetica;writing-mode:lr-tb;fill:#100f0d;fill-opacity:1;fill-rule:nonzero;stroke:none"
           transform="matrix(1,0,0,-1,13.39376,79.0895)"><tspan
             id="tspan152"
             y="0"
             x="0">7</tspan></text>
</g><path
         id="path156"
         style="fill:none;stroke:#100f0d;stroke-width:2.5;stroke-linecap:butt;stroke-linejoin:miter;stroke-miterlimit:3.79999995;stroke-dasharray:none;stroke-opacity:1"
         d="m 196.641,866.91 h 15.5 m -15.5,-4 h 15.5 m -15.5,-5 h 15.5 m -15.5,-5.5 h 15.5 m -15.5,-7 h 15.5 m -15.5,-8 h 15.5 m -15.5,-10.5 h 15.5 m -15.5,-14.5 h 15.5" /><path
         id="path158"
         style="fill:none;stroke:#828484;stroke-width:0.625;stroke-linecap:butt;stroke-linejoin:miter;stroke-miterlimit:3.79999995;stroke-dasharray:5, 10;stroke-dashoffset:0;stroke-opacity:1"
         d="M 196.641,870.91 H 2026.14" /><path
         id="path160"
         style="fill:none;stroke:#100f0d;stroke-width:2.5;stroke-linecap:butt;stroke-linejoin:miter;stroke-miterlimit:3.79999995;stroke-dasharray:none;stroke-opacity:1"
         d="m 196.641,870.91 h 31.5" /><g
         transform="scale(10)"
         id="g162"><text
           id="text166"
           style="font-variant:normal;font-weight:normal;font-size:6px;font-family:Helvetica;-inkscape-font-specification:Helvetica;writing-mode:lr-tb;fill:#100f0d;fill-opacity:1;fill-rule:nonzero;stroke:none"
           transform="matrix(1,0,0,-1,6.72188,84.4879)"><tspan
             id="tspan164"
             y="0"
             x="0 3.3369102">10</tspan></text>
<text
           id="text170"
           style="font-variant:normal;font-weight:normal;font-size:4.80000019px;font-family:Helvetica;-inkscape-font-specification:Helvetica;writing-mode:lr-tb;fill:#100f0d;fill-opacity:1;fill-rule:nonzero;stroke:none"
           transform="matrix(1,0,0,-1,13.39376,87.4879)"><tspan
             id="tspan168"
             y="0"
             x="0">8</tspan></text>
</g><path
         id="path172"
         style="fill:none;stroke:#100f0d;stroke-width:2.5;stroke-linecap:butt;stroke-linejoin:miter;stroke-miterlimit:3.79999995;stroke-dasharray:none;stroke-opacity:1"
         d="m 196.641,950.91 h 15.5 m -15.5,-4 h 15.5 m -15.5,-5 h 15.5 m -15.5,-5.496 h 15.5 m -15.5,-7.004 h 15.5 m -15.5,-7.996 h 15.5 m -15.5,-10.504 h 15.5 m -15.5,-14.496 h 15.5" /><path
         id="path174"
         style="fill:none;stroke:#828484;stroke-width:0.625;stroke-linecap:butt;stroke-linejoin:miter;stroke-miterlimit:3.79999995;stroke-dasharray:5, 10;stroke-dashoffset:0;stroke-opacity:1"
         d="M 196.641,954.91 H 2026.14" /><path
         id="path176"
         style="fill:none;stroke:#100f0d;stroke-width:2.5;stroke-linecap:butt;stroke-linejoin:miter;stroke-miterlimit:3.79999995;stroke-dasharray:none;stroke-opacity:1"
         d="m 196.641,954.91 h 31.5" /><g
         transform="scale(10)"
         id="g178"><text
           id="text182"
           style="font-variant:normal;font-weight:normal;font-size:6px;font-family:Helvetica;-inkscape-font-specification:Helvetica;writing-mode:lr-tb;fill:#100f0d;fill-opacity:1;fill-rule:nonzero;stroke:none"
           transform="matrix(1,0,0,-1,6.72188,92.8863)"><tspan
             id="tspan180"
             y="0"
             x="0 3.3369102">10</tspan></text>
<text
           id="text186"
           style="font-variant:normal;font-weight:normal;font-size:4.80000019px;font-family:Helvetica;-inkscape-font-specification:Helvetica;writing-mode:lr-tb;fill:#100f0d;fill-opacity:1;fill-rule:nonzero;stroke:none"
           transform="matrix(1,0,0,-1,13.39376,95.8863)"><tspan
             id="tspan184"
             y="0"
             x="0">9</tspan></text>
</g><path
         id="path188"
         style="fill:none;stroke:#100f0d;stroke-width:0.625;stroke-linecap:butt;stroke-linejoin:miter;stroke-miterlimit:3.79999995;stroke-dasharray:5, 10;stroke-dashoffset:0;stroke-opacity:1"
         d="M 196.641,198.906 V 954.91" /><path
         id="path190"
         style="fill:none;stroke:#100f0d;stroke-width:2.5;stroke-linecap:butt;stroke-linejoin:miter;stroke-miterlimit:3.79999995;stroke-dasharray:none;stroke-opacity:1"
         d="M 196.641,198.906 V 230.41" /><g
         transform="scale(10)"
         id="g192"><text
           id="text196"
           style="font-variant:normal;font-weight:normal;font-size:6px;font-family:Helvetica;-inkscape-font-specification:Helvetica;writing-mode:lr-tb;fill:#100f0d;fill-opacity:1;fill-rule:nonzero;stroke:none"
           transform="matrix(1,0,0,-1,14.9949,11.2848)"><tspan
             id="tspan194"
             y="0"
             x="0 3.3369095">10</tspan></text>
<text
           id="text200"
           style="font-variant:normal;font-weight:normal;font-size:4.80000019px;font-family:Helvetica;-inkscape-font-specification:Helvetica;writing-mode:lr-tb;fill:#100f0d;fill-opacity:1;fill-rule:nonzero;stroke:none"
           transform="matrix(1,0,0,-1,21.66717,14.2848)"><tspan
             id="tspan198"
             y="0"
             x="0">0</tspan></text>
</g><path
         id="path202"
         style="fill:none;stroke:#100f0d;stroke-width:2.5;stroke-linecap:butt;stroke-linejoin:miter;stroke-miterlimit:3.79999995;stroke-dasharray:none;stroke-opacity:1"
         d="m 399.641,198.906 v 15.512 m -11.004,-15.512 v 15.512 m -12.5,-15.512 v 15.512 m -13.996,-15.512 v 15.512 m -17.004,-15.512 v 15.512 m -20.496,-15.512 v 15.512 m -26.5,-15.512 v 15.512 m -37.5,-15.512 v 15.512" /><path
         id="path204"
         style="fill:none;stroke:#828484;stroke-width:0.625;stroke-linecap:butt;stroke-linejoin:miter;stroke-miterlimit:3.79999995;stroke-dasharray:5, 10;stroke-dashoffset:0;stroke-opacity:1"
         d="M 409.141,198.906 V 954.91" /><path
         id="path206"
         style="fill:none;stroke:#100f0d;stroke-width:2.5;stroke-linecap:butt;stroke-linejoin:miter;stroke-miterlimit:3.79999995;stroke-dasharray:none;stroke-opacity:1"
         d="M 409.141,198.906 V 230.41" /><g
         transform="scale(10)"
         id="g208"><text
           id="text212"
           style="font-variant:normal;font-weight:normal;font-size:6px;font-family:Helvetica;-inkscape-font-specification:Helvetica;writing-mode:lr-tb;fill:#100f0d;fill-opacity:1;fill-rule:nonzero;stroke:none"
           transform="matrix(1,0,0,-1,36.2449,11.2848)"><tspan
             id="tspan210"
             y="0"
             x="0 3.3369124">10</tspan></text>
<text
           id="text216"
           style="font-variant:normal;font-weight:normal;font-size:4.80000019px;font-family:Helvetica;-inkscape-font-specification:Helvetica;writing-mode:lr-tb;fill:#100f0d;fill-opacity:1;fill-rule:nonzero;stroke:none"
           transform="matrix(1,0,0,-1,42.91717,14.2848)"><tspan
             id="tspan214"
             y="0"
             x="0">1</tspan></text>
</g><path
         id="path218"
         style="fill:none;stroke:#100f0d;stroke-width:2.5;stroke-linecap:butt;stroke-linejoin:miter;stroke-miterlimit:3.79999995;stroke-dasharray:none;stroke-opacity:1"
         d="m 612.141,198.906 v 15.512 m -10.5,-15.512 v 15.512 m -12.5,-15.512 v 15.512 m -14.5,-15.512 v 15.512 m -16.5,-15.512 v 15.512 m -21,-15.512 v 15.512 m -26.5,-15.512 v 15.512 m -37.5,-15.512 v 15.512" /><path
         id="path220"
         style="fill:none;stroke:#828484;stroke-width:0.625;stroke-linecap:butt;stroke-linejoin:miter;stroke-miterlimit:3.79999995;stroke-dasharray:5, 10;stroke-dashoffset:0;stroke-opacity:1"
         d="M 622.141,198.906 V 954.91" /><path
         id="path222"
         style="fill:none;stroke:#100f0d;stroke-width:2.5;stroke-linecap:butt;stroke-linejoin:miter;stroke-miterlimit:3.79999995;stroke-dasharray:none;stroke-opacity:1"
         d="M 622.141,198.906 V 230.41" /><g
         transform="scale(10)"
         id="g224"><text
           id="text228"
           style="font-variant:normal;font-weight:normal;font-size:6px;font-family:Helvetica;-inkscape-font-specification:Helvetica;writing-mode:lr-tb;fill:#100f0d;fill-opacity:1;fill-rule:nonzero;stroke:none"
           transform="matrix(1,0,0,-1,57.5422,11.2848)"><tspan
             id="tspan226"
             y="0"
             x="0 3.3369095">10</tspan></text>
<text
           id="text232"
           style="font-variant:normal;font-weight:normal;font-size:4.80000019px;font-family:Helvetica;-inkscape-font-specification:Helvetica;writing-mode:lr-tb;fill:#100f0d;fill-opacity:1;fill-rule:nonzero;stroke:none"
           transform="matrix(1,0,0,-1,64.21408,14.2848)"><tspan
             id="tspan230"
             y="0"
             x="0">2</tspan></text>
</g><path
         id="path234"
         style="fill:none;stroke:#100f0d;stroke-width:2.5;stroke-linecap:butt;stroke-linejoin:miter;stroke-miterlimit:3.79999995;stroke-dasharray:none;stroke-opacity:1"
         d="m 825.137,198.906 v 15.512 m -10.996,-15.512 v 15.512 m -12.5,-15.512 v 15.512 m -14.004,-15.512 v 15.512 m -16.996,-15.512 v 15.512 m -20.504,-15.512 v 15.512 m -26.5,-15.512 v 15.512 m -37.5,-15.512 v 15.512" /><path
         id="path236"
         style="fill:none;stroke:#828484;stroke-width:0.625;stroke-linecap:butt;stroke-linejoin:miter;stroke-miterlimit:3.79999995;stroke-dasharray:5, 10;stroke-dashoffset:0;stroke-opacity:1"
         d="M 834.641,198.906 V 954.91" /><path
         id="path238"
         style="fill:none;stroke:#100f0d;stroke-width:2.5;stroke-linecap:butt;stroke-linejoin:miter;stroke-miterlimit:3.79999995;stroke-dasharray:none;stroke-opacity:1"
         d="M 834.641,198.906 V 230.41" /><g
         transform="scale(10)"
         id="g240"><text
           id="text244"
           style="font-variant:normal;font-weight:normal;font-size:6px;font-family:Helvetica;-inkscape-font-specification:Helvetica;writing-mode:lr-tb;fill:#100f0d;fill-opacity:1;fill-rule:nonzero;stroke:none"
           transform="matrix(1,0,0,-1,78.7922,11.2848)"><tspan
             id="tspan242"
             y="0"
             x="0 3.3369095">10</tspan></text>
<text
           id="text248"
           style="font-variant:normal;font-weight:normal;font-size:4.80000019px;font-family:Helvetica;-inkscape-font-specification:Helvetica;writing-mode:lr-tb;fill:#100f0d;fill-opacity:1;fill-rule:nonzero;stroke:none"
           transform="matrix(1,0,0,-1,85.46408,14.2848)"><tspan
             id="tspan246"
             y="0"
             x="0">3</tspan></text>
</g><path
         id="path250"
         style="fill:none;stroke:#100f0d;stroke-width:2.5;stroke-linecap:butt;stroke-linejoin:miter;stroke-miterlimit:3.79999995;stroke-dasharray:none;stroke-opacity:1"
         d="m 1037.64,198.906 v 15.512 m -11,-15.512 v 15.512 m -12,-15.512 v 15.512 m -14.5,-15.512 v 15.512 m -16.999,-15.512 v 15.512 m -20.504,-15.512 v 15.512 m -26.5,-15.512 v 15.512 m -37.5,-15.512 v 15.512" /><path
         id="path252"
         style="fill:none;stroke:#828484;stroke-width:0.625;stroke-linecap:butt;stroke-linejoin:miter;stroke-miterlimit:3.79999995;stroke-dasharray:5, 10;stroke-dashoffset:0;stroke-opacity:1"
         d="M 1047.14,198.906 V 954.91" /><path
         id="path254"
         style="fill:none;stroke:#100f0d;stroke-width:2.5;stroke-linecap:butt;stroke-linejoin:miter;stroke-miterlimit:3.79999995;stroke-dasharray:none;stroke-opacity:1"
         d="M 1047.14,198.906 V 230.41" /><g
         transform="scale(10)"
         id="g256"><text
           id="text260"
           style="font-variant:normal;font-weight:normal;font-size:6px;font-family:Helvetica;-inkscape-font-specification:Helvetica;writing-mode:lr-tb;fill:#100f0d;fill-opacity:1;fill-rule:nonzero;stroke:none"
           transform="matrix(1,0,0,-1,100.042,11.2848)"><tspan
             id="tspan258"
             y="0"
             x="0 3.3369155">10</tspan></text>
<text
           id="text264"
           style="font-variant:normal;font-weight:normal;font-size:4.80000019px;font-family:Helvetica;-inkscape-font-specification:Helvetica;writing-mode:lr-tb;fill:#100f0d;fill-opacity:1;fill-rule:nonzero;stroke:none"
           transform="matrix(1,0,0,-1,106.71388,14.2848)"><tspan
             id="tspan262"
             y="0"
             x="0">4</tspan></text>
</g><path
         id="path266"
         style="fill:none;stroke:#100f0d;stroke-width:2.5;stroke-linecap:butt;stroke-linejoin:miter;stroke-miterlimit:3.79999995;stroke-dasharray:none;stroke-opacity:1"
         d="m 1250.14,198.906 v 15.512 m -10.5,-15.512 v 15.512 m -12.5,-15.512 v 15.512 m -14.5,-15.512 v 15.512 m -16.5,-15.512 v 15.512 m -20.51,-15.512 v 15.512 m -26.99,-15.512 v 15.512 m -37,-15.512 v 15.512" /><path
         id="path268"
         style="fill:none;stroke:#828484;stroke-width:0.625;stroke-linecap:butt;stroke-linejoin:miter;stroke-miterlimit:3.79999995;stroke-dasharray:5, 10;stroke-dashoffset:0;stroke-opacity:1"
         d="M 1260.14,198.906 V 954.91" /><path
         id="path270"
         style="fill:none;stroke:#100f0d;stroke-width:2.5;stroke-linecap:butt;stroke-linejoin:miter;stroke-miterlimit:3.79999995;stroke-dasharray:none;stroke-opacity:1"
         d="M 1260.14,198.906 V 230.41" /><g
         transform="scale(10)"
         id="g272"><text
           id="text276"
           style="font-variant:normal;font-weight:normal;font-size:6px;font-family:Helvetica;-inkscape-font-specification:Helvetica;writing-mode:lr-tb;fill:#100f0d;fill-opacity:1;fill-rule:nonzero;stroke:none"
           transform="matrix(1,0,0,-1,121.339,11.2848)"><tspan
             id="tspan274"
             y="0"
             x="0 3.3369155">10</tspan></text>
<text
           id="text280"
           style="font-variant:normal;font-weight:normal;font-size:4.80000019px;font-family:Helvetica;-inkscape-font-specification:Helvetica;writing-mode:lr-tb;fill:#100f0d;fill-opacity:1;fill-rule:nonzero;stroke:none"
           transform="matrix(1,0,0,-1,128.01088,14.2848)"><tspan
             id="tspan278"
             y="0"
             x="0">5</tspan></text>
</g><path
         id="path282"
         style="fill:none;stroke:#100f0d;stroke-width:2.5;stroke-linecap:butt;stroke-linejoin:miter;stroke-miterlimit:3.79999995;stroke-dasharray:none;stroke-opacity:1"
         d="m 1463.13,198.906 v 15.512 m -10.99,-15.512 v 15.512 m -12.5,-15.512 v 15.512 m -14.01,-15.512 v 15.512 m -16.99,-15.512 v 15.512 m -20.51,-15.512 v 15.512 m -26.49,-15.512 v 15.512 m -37.5,-15.512 v 15.512" /><path
         id="path284"
         style="fill:none;stroke:#828484;stroke-width:0.625;stroke-linecap:butt;stroke-linejoin:miter;stroke-miterlimit:3.79999995;stroke-dasharray:5, 10;stroke-dashoffset:0;stroke-opacity:1"
         d="M 1472.64,198.906 V 954.91" /><path
         id="path286"
         style="fill:none;stroke:#100f0d;stroke-width:2.5;stroke-linecap:butt;stroke-linejoin:miter;stroke-miterlimit:3.79999995;stroke-dasharray:none;stroke-opacity:1"
         d="M 1472.64,198.906 V 230.41" /><g
         transform="scale(10)"
         id="g288"><text
           id="text292"
           style="font-variant:normal;font-weight:normal;font-size:6px;font-family:Helvetica;-inkscape-font-specification:Helvetica;writing-mode:lr-tb;fill:#100f0d;fill-opacity:1;fill-rule:nonzero;stroke:none"
           transform="matrix(1,0,0,-1,142.589,11.2848)"><tspan
             id="tspan290"
             y="0"
             x="0 3.3369155">10</tspan></text>
<text
           id="text296"
           style="font-variant:normal;font-weight:normal;font-size:4.80000019px;font-family:Helvetica;-inkscape-font-specification:Helvetica;writing-mode:lr-tb;fill:#100f0d;fill-opacity:1;fill-rule:nonzero;stroke:none"
           transform="matrix(1,0,0,-1,149.26088,14.2848)"><tspan
             id="tspan294"
             y="0"
             x="0">6</tspan></text>
</g><path
         id="path298"
         style="fill:none;stroke:#100f0d;stroke-width:2.5;stroke-linecap:butt;stroke-linejoin:miter;stroke-miterlimit:3.79999995;stroke-dasharray:none;stroke-opacity:1"
         d="m 1675.63,198.906 v 15.512 m -10.99,-15.512 v 15.512 m -12,-15.512 v 15.512 m -14.51,-15.512 v 15.512 m -16.99,-15.512 v 15.512 m -20.51,-15.512 v 15.512 m -26.49,-15.512 v 15.512 m -37.5,-15.512 v 15.512" /><path
         id="path300"
         style="fill:none;stroke:#828484;stroke-width:0.625;stroke-linecap:butt;stroke-linejoin:miter;stroke-miterlimit:3.79999995;stroke-dasharray:5, 10;stroke-dashoffset:0;stroke-opacity:1"
         d="M 1685.63,198.906 V 954.91" /><path
         id="path302"
         style="fill:none;stroke:#100f0d;stroke-width:2.5;stroke-linecap:butt;stroke-linejoin:miter;stroke-miterlimit:3.79999995;stroke-dasharray:none;stroke-opacity:1"
         d="M 1685.63,198.906 V 230.41" /><g
         transform="scale(10)"
         id="g304"><text
           id="text308"
           style="font-variant:normal;font-weight:normal;font-size:6px;font-family:Helvetica;-inkscape-font-specification:Helvetica;writing-mode:lr-tb;fill:#100f0d;fill-opacity:1;fill-rule:nonzero;stroke:none"
           transform="matrix(1,0,0,-1,163.894,11.2848)"><tspan
             id="tspan306"
             y="0"
             x="0 3.3369155">10</tspan></text>
<text
           id="text312"
           style="font-variant:normal;font-weight:normal;font-size:4.80000019px;font-family:Helvetica;-inkscape-font-specification:Helvetica;writing-mode:lr-tb;fill:#100f0d;fill-opacity:1;fill-rule:nonzero;stroke:none"
           transform="matrix(1,0,0,-1,170.5647,14.2848)"><tspan
             id="tspan310"
             y="0"
             x="0">7</tspan></text>
</g><path
         id="path314"
         style="fill:none;stroke:#100f0d;stroke-width:2.5;stroke-linecap:butt;stroke-linejoin:miter;stroke-miterlimit:3.79999995;stroke-dasharray:none;stroke-opacity:1"
         d="m 1888.13,198.906 v 15.512 m -10.49,-15.512 v 15.512 m -12.5,-15.512 v 15.512 m -14,-15.512 v 15.512 m -17,-15.512 v 15.512 m -20.5,-15.512 v 15.512 m -27,-15.512 v 15.512 m -37,-15.512 v 15.512" /><path
         id="path316"
         style="fill:none;stroke:#828484;stroke-width:0.625;stroke-linecap:butt;stroke-linejoin:miter;stroke-miterlimit:3.79999995;stroke-dasharray:5, 10;stroke-dashoffset:0;stroke-opacity:1"
         d="M 1898.13,198.906 V 954.91" /><path
         id="path318"
         style="fill:none;stroke:#100f0d;stroke-width:2.5;stroke-linecap:butt;stroke-linejoin:miter;stroke-miterlimit:3.79999995;stroke-dasharray:none;stroke-opacity:1"
         d="M 1898.13,198.906 V 230.41" /><g
         transform="scale(10)"
         id="g320"><text
           id="text324"
           style="font-variant:normal;font-weight:normal;font-size:6px;font-family:Helvetica;-inkscape-font-specification:Helvetica;writing-mode:lr-tb;fill:#100f0d;fill-opacity:1;fill-rule:nonzero;stroke:none"
           transform="matrix(1,0,0,-1,185.144,11.2848)"><tspan
             id="tspan322"
             y="0"
             x="0 3.3369155">10</tspan></text>
<text
           id="text328"
           style="font-variant:normal;font-weight:normal;font-size:4.80000019px;font-family:Helvetica;-inkscape-font-specification:Helvetica;writing-mode:lr-tb;fill:#100f0d;fill-opacity:1;fill-rule:nonzero;stroke:none"
           transform="matrix(1,0,0,-1,191.8147,14.2848)"><tspan
             id="tspan326"
             y="0"
             x="0">8</tspan></text>
</g><path
         id="path330"
         style="fill:none;stroke:#100f0d;stroke-width:2.5;stroke-linecap:butt;stroke-linejoin:miter;stroke-miterlimit:3.79999995;stroke-dasharray:none;stroke-opacity:1"
         d="m 2026.14,198.906 v 15.512 m -26.5,-15.512 v 15.512 m -37.5,-15.512 v 15.512" /><path
         id="path332"
         style="fill:none;stroke:#100f0d;stroke-width:5;stroke-linecap:butt;stroke-linejoin:miter;stroke-miterlimit:3.79999995;stroke-dasharray:none;stroke-opacity:1"
         d="M 196.641,954.91 V 198.906 H 2026.14" /><g
         transform="scale(10)"
         id="g334"><text
           id="text338"
           style="font-variant:normal;font-weight:normal;font-size:6px;font-family:Helvetica;-inkscape-font-specification:Helvetica;writing-mode:lr-tb;fill:#6346a6;fill-opacity:1;fill-rule:nonzero;stroke:none"
           transform="matrix(1,0,0,-1,26.7797,54.3305)"><tspan
             id="tspan336"
             y="0"
             x="0 4.9980001 8.3339996 13.332 16.332001 19.667999 22.667999 26.004 29.34">Memcached</tspan></text>
<text
           id="text342"
           style="font-variant:normal;font-weight:normal;font-size:5.5px;font-family:Helvetica;-inkscape-font-specification:Helvetica;writing-mode:lr-tb;fill:#6346a6;fill-opacity:1;fill-rule:nonzero;stroke:none"
           transform="matrix(1,0,0,-1,31.50197,48.3098)"><tspan
             id="tspan340"
             y="0"
             x="0 1.8315001 4.8905802 7.9491725 9.4774914 12.536084 15.594673 18.653757 21.403757">(51,000x)</tspan></text>
</g><g
         transform="scale(10)"
         id="g344"><text
           id="text348"
           style="font-variant:normal;font-weight:normal;font-size:6px;font-family:Helvetica;-inkscape-font-specification:Helvetica;writing-mode:lr-tb;fill:#d73025;fill-opacity:1;fill-rule:nonzero;stroke:none"
           transform="matrix(1,0,0,-1,37.1195,37.9273)"><tspan
             id="tspan346"
             y="0"
             x="0 4.3319998 7.9980001">NTP</tspan></text>
<text
           id="text352"
           style="font-variant:normal;font-weight:normal;font-size:5.5px;font-family:Helvetica;-inkscape-font-specification:Helvetica;writing-mode:lr-tb;fill:#d73025;fill-opacity:1;fill-rule:nonzero;stroke:none"
           transform="matrix(1,0,0,-1,33.03161,32.03121)"><tspan
             id="tspan350"
             y="0"
             x="0 1.8315001 4.8905802 7.9491725 11.007765 12.536084 15.594673 18.344673">(556.9x)</tspan></text>
</g><path
         id="path354"
         style="fill:none;stroke:#6346a6;stroke-width:5;stroke-linecap:butt;stroke-linejoin:miter;stroke-miterlimit:3.79999995;stroke-dasharray:none;stroke-opacity:1"
         d="M 682.141,594.41 V 198.906 m -485.5,395.504 h 485.5" /><path
         id="path356"
         style="fill:none;stroke:#d73025;stroke-width:5;stroke-linecap:butt;stroke-linejoin:miter;stroke-miterlimit:3.79999995;stroke-dasharray:none;stroke-opacity:1"
         d="M 1257.14,429.418 V 198.906 M 196.641,429.418 H 1257.14" /><g
         transform="scale(10)"
         id="g358"><text
           id="text362"
           style="font-variant:normal;font-weight:bold;font-size:6px;font-family:Helvetica;-inkscape-font-specification:Helvetica-Bold;writing-mode:lr-tb;fill:#100f0d;fill-opacity:1;fill-rule:nonzero;stroke:none"
           transform="matrix(0,1,1,0,5.15938,28.6988)"><tspan
             id="tspan360"
             y="0"
             x="0 4.3330102 9.6679688 13.33301 15 16.66699 18.664989 20.331984 23.668892 27.005808 29.003807 30.670801 34.335842 38.000885 39.667877 43.33292 46.669827 50.006737 52.004738 55.656116">Amplification Factor</tspan></text>
<text
           id="text366"
           style="font-variant:normal;font-weight:bold;font-size:6px;font-family:Helvetica;-inkscape-font-specification:Helvetica-Bold;writing-mode:lr-tb;fill:#100f0d;fill-opacity:1;fill-rule:nonzero;stroke:none"
           transform="matrix(1,0,0,-1,87.2766,2.88633)"><tspan
             id="tspan364"
             y="0"
             x="0 1.668 5.6700001 7.3379998 11.67 15.336 19.002001 21.336 24.672001 28.007999 31.344 33.012001 37.344002 40.68 44.343365">IP Address Rank</tspan></text>
</g><path
         id="path368"
         style="fill:none;stroke:#96bde7;stroke-width:7.5;stroke-linecap:butt;stroke-linejoin:miter;stroke-miterlimit:3.79999995;stroke-dasharray:none;stroke-opacity:1"
         d="m 1715.63,249.914 v -0.496 h 4.01 v -0.512 h 0.5 v -0.496 -0.5 h 1.5 v -0.496 h 1.49 v -0.508 h 0.51 0.5 0.5 v -0.5 h 2 v -0.496 h 0.5 v -0.5 -0.496 -0.508 h 0.5 0.49 v -0.5 h 1.51 0.5 v -0.496 h 0.49 2.01 v -0.5 h 0.49 4.51 4 v -0.496 h 0.5 v -0.508 -0.5 -0.496 h 0.5 1 v -0.5 -0.496 h 0.5 21.49 6.01 2.5 2.5 v -0.508 h 0.5 v -0.5 h 0.5 0.49 2.5 v -0.496 -0.5 h 0.51 1.99 v -0.508 h 0.51 v -0.496 -0.5 -0.496 h 0.5 v -0.5 -0.508 h 0.5 0.5 1 v -0.496 h 0.5 0.5 v -0.5 h 0.99 v -0.496 h 0.51 0.5 0.5 v -0.5 h 0.99 v -0.508 h 0.51 0.5 v -0.496 h 0.5 0.5 3.5 v -0.5 h 0.5 0.5 v -0.496 h 0.5 v -0.5 h 0.49 v -0.508 h 0.51 v -0.496 -0.5 h 0.5 v -0.496 h 0.5 v -0.5 h 3.5 v -0.508 h 5 v -0.496 h 1 v -0.5 -0.496 -0.508 -0.5 -0.496 h 0.5 v -0.5 -0.496 -0.508 -0.5 -0.496 h 0.5 v -0.5 -0.496 h 2 v -0.508 h 7 v -0.5 -0.496 h 0.5 v -0.5 -0.508 -0.496 h 0.5 v -0.5 -0.496 -0.5 -0.508 -0.496 h 0.5 v -0.5 h 0.5 v -0.496 h 0.5 v -0.5 -0.508 -0.496 h 1 v -0.5 h 142.5 v -0.496 h 0.5 v -0.5 -0.508 -0.496 -0.5 -0.496 -0.5 -0.508 -0.496 -0.5 h 0.5 v -0.496 -0.508 h 0.5 v -0.5 -0.496 -0.5 h 0.5 v -0.496 -0.508 h 0.5 v -0.5 -0.496 h 0.5 v -0.5 h 0.5 v -0.496 h 30 0.5 v -0.508 -0.5 -0.496 -0.5 -0.496 -0.508 h 0.5 m -469.5,106.016 h 0.49 0.51 v -0.496 -0.512 h 0.5 v -0.496 h 0.5 v -0.5 h 0.5 v -0.496 h 0.49 0.51 v -0.508 h 0.5 v -0.5 -0.496 h 0.5 v -0.5 h 0.5 v -0.496 -0.508 h 0.49 0.51 v -0.5 h 1 0.5 0.49 v -0.496 h 0.51 1.99 1.51 0.5 0.49 v -0.5 h 1.01 1 0.49 v -0.496 h 1.01 0.5 0.5 0.49 v -0.508 h 0.51 0.5 v -0.5 h 0.5 v -0.496 h 0.5 0.49 0.51 v -0.5 h 1 0.99 11.01 0.5 v -0.496 h 0.99 1.01 v -0.508 h 4.5 2.5 2.5 0.5 8 v -0.5 h 0.5 v -0.496 h 0.49 v -0.5 h 0.51 0.5 v -0.508 h 0.5 0.5 v -0.496 h 1.5 v -0.5 -0.496 h 2 v -0.5 h 1.5 v -0.508 -0.496 h 0.49 2.5 2.01 v -0.5 h 2.99 v -0.496 h 5.51 v -0.5 -0.508 h 0.5 v -0.496 -0.5 h 0.5 v -0.496 h 4.5 v -0.5 h 1.49 0.51 v -0.508 h 0.5 v -0.496 -0.5 h 0.5 v -0.496 h 0.5 0.5 v -0.508 h 0.5 v -0.5 h 0.5 v -0.496 -0.5 h 0.5 v -0.496 -0.508 h 0.5 v -0.5 -0.496 h 0.5 v -0.5 -0.496 h 2 3.5 v -0.508 h 0.5 v -0.5 -0.496 h 2 v -0.5 h 0.5 1.5 v -0.496 h 0.5 v -0.508 -0.5 h 0.5 1 1 0.5 v -0.496 h 0.5 0.5 v -0.5 h 0.5 v -0.508 h 1.5 0.5 v -0.496 h 2 0.5 1 0.5 0.5 0.5 v -0.5 h 0.5 1 v -0.496 -0.5 h 0.5 v -0.508 -0.496 h 0.5 0.5 v -0.5 -0.496 -0.5 -0.508 h 0.5 3 v -0.496 h 0.5 v -0.5 h 0.5 v -0.496 h 0.5 v -0.5 h 7.5 v -0.508 -0.496 h 1.5 v -0.5 h 0.5 v -0.496 -0.5 h 0.5 v -0.508 -0.496 h 0.5 v -0.5 h 1 v -0.496 -0.508 h 0.5 v -0.5 h 0.5 0.5 0.5 v -0.496 h 0.5 0.5 v -0.5 h 0.5 v -0.496 h 0.5 v -0.508 -0.5 -0.496 h 5 0.5 v -0.5 h 0.5 v -0.496 h 2.5 v -0.508 h 0.5 v -0.5 -0.496 h 1.5 0.5 v -0.5 h 0.5 v -0.507 h 4.5 0.5 1 v -0.497 h 4 0.5 v -0.5 h 0.5 v -0.496 -0.5 h 1 24 0.5 v -0.507 -0.497 -0.5 h 0.5 0.5 v -0.496 h 1 v -0.5 h 2 m -335.5,123.008 h 0.49 v -0.496 -0.496 -0.512 -0.496 -0.5 -0.496 h 0.51 v -0.508 h 0.5 v -0.5 -0.496 h 3 v -0.5 -0.496 -0.508 -0.5 h 0.5 v -0.496 -0.5 -0.496 -0.508 -0.5 h 0.49 v -0.496 -0.5 -0.496 -0.508 -0.5 -0.496 h 0.51 v -0.5 -0.508 -0.496 -0.5 -0.496 h 0.5 v -0.5 -0.508 -0.496 -0.5 -0.496 -0.5 -0.508 -0.496 -0.5 -0.496 -0.5 h 0.5 v -0.508 h 0.5 v -0.496 -0.5 h 0.49 v -0.496 -0.508 -0.5 h 0.51 v -0.496 -0.5 h 0.5 v -0.496 h 0.5 0.5 v -0.508 h 0.49 v -0.5 h 0.51 v -0.496 h 0.5 v -0.5 h 0.5 v -0.496 h 0.5 v -0.508 h 0.49 0.51 v -0.5 -0.496 h 1 0.5 v -0.5 h 0.49 v -0.496 -0.508 h 0.51 v -0.5 h 0.5 v -0.496 h 1 v -0.5 h 0.49 v -0.508 h 0.51 v -0.496 -0.5 h 1 0.5 0.49 v -0.496 -0.5 h 0.51 0.5 v -0.508 h 1 0.49 v -0.496 h 0.51 v -0.5 h 0.5 v -0.496 h 0.5 v -0.5 -0.508 -0.496 h 0.5 v -0.5 h 0.49 v -0.496 h 0.51 v -0.5 h 0.5 v -0.508 h 0.5 v -0.496 h 0.5 v -0.5 h 0.5 0.5 v -0.496 -0.5 -0.508 h 1 v -0.496 -0.5 h 0.5 0.5 v -0.496 -0.508 -0.5 h 0.5 v -0.496 -0.5 h 2 0.5 0.5 v -0.496 h 2 1 0.5 v -0.508 -0.5 h 1 2 0.5 v -0.496 h 1.5 4.5 v -0.5 h 2.5 1.5 v -0.496 h 0.5 0.5 5 v -0.508 h 1.5 1.5 v -0.5 h 1 1 0.5 v -0.496 -0.5 h 37 2 v -0.507 h 13.5 0.5 v -0.497 -0.5 h 0.5 0.5 v -0.496 -0.5 -0.507 h 0.5 1.5 v -0.497 h 0.5 v -0.5 h 0.5 v -0.496 h 0.5 v -0.5 h 3.5 v -0.507 -0.497 h 0.5 1 v -0.5 -0.496 h 0.5 v -0.5 h 0.5 0.5 v -0.507 h 0.5 6 v -0.497 h 0.5 v -0.5 h 0.5 0.5 v -0.496 -0.5 -0.507 -0.497 h 2 v -0.5 h 0.5 0.5 0.5 v -0.496 h 0.5 v -0.507 h 0.5 v -0.5 h 0.5 0.5 v -0.497 h 0.5 1.5 0.5 v -0.5 h 0.5 0.5 v -0.496 h 0.5 v -0.507 h 0.5 v -0.5 -0.497 h 4.5 v -0.5 h 0.5 v -0.496 h 0.5 v -0.507 m -300,134.523 h 0.49 0.51 v -0.512 h 0.5 v -0.496 h 0.5 v -0.5 h 0.5 0.49 v -0.496 h 0.51 0.5 v -0.496 h 0.5 0.99 0.51 v -0.512 h 0.5 1 v -0.496 h 0.49 0.51 0.5 0.5 v -0.5 h 5.5 0.49 0.51 v -0.496 h 0.5 0.5 v -0.508 h 0.5 0.49 v -0.5 -0.496 h 0.51 v -0.5 h 0.5 v -0.496 -0.508 h 0.5 0.5 0.49 0.5 v -0.5 h 0.51 0.5 2.5 v -0.496 -0.5 h 0.5 0.49 v -0.496 h 0.5 0.51 v -0.508 h 0.5 0.5 0.49 0.5 v -0.5 h 0.51 0.5 v -0.496 h 0.5 v -0.5 h 0.49 v -0.508 h 0.5 v -0.496 h 0.51 v -0.5 -0.496 h 0.5 v -0.5 -0.508 h 0.5 v -0.496 -0.5 h 0.49 v -0.496 -0.5 h 0.5 v -0.508 -0.496 h 0.51 0.5 0.5 v -0.5 -0.496 h 0.49 v -0.5 h 0.5 v -0.508 -0.496 h 0.51 v -0.5 h 0.5 v -0.496 -0.5 h 0.5 v -0.508 -0.496 h 0.49 v -0.5 -0.496 h 0.5 v -0.508 h 0.51 0.5 0.5 v -0.5 h 0.99 0.51 0.5 0.5 v -0.496 h 0.99 v -0.5 h 0.51 v -0.496 h 3 0.5 0.49 v -0.508 h 0.5 v -0.5 h 0.51 0.5 0.5 0.99 v -0.496 h 0.5 0.51 0.5 1.49 v -0.5 h 0.51 0.5 0.99 v -0.496 h 1.01 0.5 v -0.508 -0.5 h 0.49 v -0.496 h 29.01 0.5 v -0.5 -0.496 h 0.49 v -0.508 -0.5 -0.496 h 0.5 v -0.5 -0.508 -0.496 -0.5 h 0.5 v -0.496 -0.5 h 0.51 v -0.508 -0.496 -0.5 -0.496 h 0.5 v -0.5 -0.508 -0.496 h 0.49 v -0.5 -0.496 h 0.5 v -0.5 h 0.51 0.5 32.5 v -0.508 -0.496 -0.5 h 0.5 v -0.496 -0.508 h 0.49 v -0.5 h 0.5 v -0.496 h 0.51 v -0.5 -0.496 -0.508 -0.5 -0.496 -0.5 -0.496 -0.508 h 0.5 v -0.5 -0.496 -0.5 -0.496 -0.508 h 0.5 v -0.5 -0.496 -0.5 -0.507 h 0.49 v -0.497 h 0.5 v -0.5 -0.496 -0.5 -0.507 -0.497 h 0.51 13.99 v -0.5 -0.496 h 0.5 v -0.5 h 4.5 v -0.507 -0.497 -0.5 h 0.5 v -0.496 -0.5 -0.507 -0.497 -0.5 h 0.51 v -0.496 -0.5 -0.507 -0.497 -0.5 -0.496 h 0.5 v -0.507 -0.5 h 0.5 v -0.497 -0.5 -0.496 m -269.51,107.012 v -0.496 h 0.51 v -0.512 h 0.5 v -0.496 -0.5 -0.496 h 0.5 0.5 v -0.508 h 0.49 0.51 0.5 0.5 v -0.5 h 0.5 0.49 v -0.496 h 0.51 v -0.5 h 0.5 0.5 0.5 v -0.496 h 0.49 0.51 0.5 v -0.508 h 0.5 7.5 0.5 v -0.5 h 0.49 1.01 v -0.496 h 0.5 0.99 7.5 v -0.5 h 0.5 1.01 0.5 0.49 1.01 1.49 v -0.496 h 0.5 0.51 0.5 v -0.508 h 0.5 v -0.5 -0.496 h 0.49 0.5 0.51 v -0.5 h 1.49 v -0.496 h 11.51 0.5 v -0.508 h 0.49 0.5 2 v -0.5 h 0.5 0.51 v -0.496 h 0.5 0.5 v -0.5 h 0.49 0.5 0.51 v -0.508 h 0.5 0.5 v -0.496 h 0.49 0.5 v -0.5 h 0.51 0.5 0.5 v -0.496 h 0.49 0.5 v -0.5 h 0.51 0.5 0.5 0.49 v -0.508 h 0.5 0.51 1.99 0.51 v -0.496 h 0.5 0.5 v -0.5 h 0.49 0.5 0.51 v -0.496 h 0.5 0.5 v -0.5 h 0.49 0.5 0.5 v -0.508 h 0.51 0.5 0.49 0.5 v -0.496 h 0.5 0.51 0.5 v -0.5 h 0.49 0.5 0.5 0.51 v -0.496 h 0.5 0.49 0.5 0.5 0.51 v -0.5 h 0.5 0.49 0.5 0.5 0.51 v -0.508 h 0.5 0.49 0.5 0.5 0.51 0.5 v -0.496 h 0.49 0.5 0.5 0.51 0.5 0.49 v -0.5 h 0.5 4.01 0.49 0.5 0.5 v -0.496 h 0.5 0.51 0.49 0.5 v -0.5 h 0.5 0.5 0.51 v -0.508 h 0.49 0.5 0.5 v -0.496 h 0.5 0.51 v -0.5 h 0.49 0.5 v -0.496 h 0.5 v -0.508 h 0.5 v -0.5 h 0.51 v -0.496 h 0.49 v -0.5 h 0.5 v -0.496 h 0.5 v -0.508 h 0.5 v -0.5 -0.496 h 0.51 0.49 v -0.5 h 0.5 v -0.496 h 0.5 0.5 v -0.508 h 0.51 v -0.5 h 0.49 v -0.496 h 0.5 v -0.5 h 0.5 v -0.508 h 0.5 v -0.496 -0.5 h 0.51 v -0.496 h 0.49 0.5 v -0.5 h 0.5 0.5 v -0.508 h 0.51 0.49 v -0.496 h 0.5 v -0.5 h 0.5 v -0.496 h 0.5 v -0.5 h 0.5 v -0.508 h 0.5 v -0.496 h 0.5 0.5 v -0.5 h 0.5 v -0.496 h 0.5 v -0.5 h 0.5 v -0.508 h 0.5 v -0.496 h 0.5 0.5 v -0.5 h 0.5 v -0.496 m -219.49,83.004 h 1.5 0.5 2.5 1 2 0.5 1 1.5 0.5 1.49 1.51 0.5 1.5 1 1 0.5 v -0.5 h 1.49 0.51 1 0.99 0.51 0.5 0.5 v -0.496 h 0.5 0.49 v -0.504 h 0.51 0.5 v -0.5 h 0.5 0.5 v -0.5 h 0.49 v -0.5 h 0.51 v -0.504 h 0.5 0.5 v -0.496 h 0.5 0.49 v -0.5 h 0.51 v -0.5 h 0.5 v -0.5 h 0.5 0.5 v -0.504 h 0.49 0.5 v -0.496 h 0.51 0.5 0.5 0.49 0.5 0.51 0.5 0.99 v -0.5 h 0.5 1.01 0.5 0.49 1.01 0.5 0.5 0.49 0.5 0.51 1 0.99 1.01 0.5 0.99 1.01 v -0.5 h 0.5 0.49 0.5 0.51 0.5 0.99 0.5 0.51 0.5 0.5 0.49 0.5 0.51 v -0.5 h 0.5 0.5 0.49 0.5 0.51 0.5 0.5 0.49 0.5 v -0.504 h 0.51 0.5 0.5 0.49 0.5 v -0.496 h 0.51 0.5 0.5 0.49 v -0.504 h 0.5 0.51 v -0.496 h 0.5 0.5 0.49 v -0.5 h 0.5 0.5 v -0.504 h 0.51 v -0.496 h 0.5 0.49 v -0.504 h 0.5 v -0.496 h 0.5 v -0.504 h 0.51 v -0.5 -0.496 h 0.5 v -0.504 h 0.49 v -0.496 h 0.5 v -0.504 -0.5 h 0.5 v -0.496 h 0.51 v -0.504 h 0.5 v -0.496 -0.504 h 0.49 v -0.5 h 0.5 v -0.496 h 0.5 v -0.504 h 0.51 v -0.496 h 0.5 v -0.504 h 0.49 v -0.5 h 0.5 v -0.5 h 0.5 v -0.5 -0.504 h 0.51 v -0.496 h 0.5 v -0.5 -0.496 h 0.49 v -0.508 h 0.5 1.01 v -0.5 h 0.5 v -0.496 h 0.49 v -0.5 h 0.5 v -0.496 h 0.5 v -0.508 h 0.51 v -0.5 h 0.5 v -0.496 h 0.49 v -0.5 h 0.5 v -0.496 -0.508 h 0.5 v -0.5 h 0.5 v -0.496 -0.5 h 0.51 v -0.508 h 0.49 v -0.496 h 0.5 0.5 v -0.5 h 0.5 0.51 0.49 0.5 v -0.496 h 0.5 v -0.5 h 0.5 v -0.508 h 1 0.5 0.5 v -0.496 h 0.5 v -0.5 h 0.51 v -0.496 h 0.49 v -0.5 h 0.5 v -0.508 h 0.5 v -0.496 h 0.5 v -0.5 h 0.51 v -0.496 h 0.49 v -0.5 h 0.5 v -0.508 h 0.5 v -0.496 -0.5 h 0.5 v -0.496 -0.5 h 0.51 v -0.508 -0.496 h 0.49 v -0.5 M 857.637,552.91 h 0.504 v -0.5 h 0.496 0.504 0.5 0.496 v -0.5 h 0.504 0.496 0.504 v -0.496 h 0.5 0.496 0.504 0.496 v -0.504 h 0.5 0.504 v -0.5 h 0.496 0.504 v -0.5 h 0.496 0.5 0.504 v -0.5 h 0.496 0.504 v -0.504 h 0.496 0.5 v -0.496 h 0.504 v -0.5 h 0.496 0.504 0.496 v -0.5 h 0.5 0.504 0.496 v -0.5 h 0.5 0.5 0.5 v -0.504 h 0.504 0.496 v -0.496 h 0.5 0.5 v -0.5 h 0.5 0.504 v -0.5 h 0.496 0.5 v -0.5 h 0.5 0.5 0.504 v -0.504 h 0.496 0.5 0.5 v -0.496 h 0.5 0.504 v -0.504 h 0.496 0.5 0.5 v -0.496 h 0.5 0.496 0.504 v -0.5 h 0.5 0.5 v -0.504 h 0.5 0.496 0.504 0.5 0.5 v -0.496 h 0.5 v -0.504 h 0.496 0.504 v -0.496 h 0.5 0.5 v -0.504 h 0.5 0.496 0.504 v -0.5 h 0.5 0.496 v -0.496 h 0.504 0.496 0.504 v -0.504 h 0.5 0.496 v -0.496 h 0.504 0.496 0.504 v -0.504 h 0.5 0.496 0.504 v -0.5 h 0.496 0.504 v -0.496 h 0.5 0.496 0.504 v -0.504 h 0.496 0.504 0.5 0.496 v -0.496 h 0.504 0.496 0.5 v -0.504 h 0.504 0.496 0.504 v -0.5 h 0.496 0.5 v -0.496 h 0.504 0.496 0.504 v -0.504 h 0.496 0.5 0.504 0.496 0.5 v -0.496 h 0.5 0.5 0.504 v -0.504 h 0.496 0.5 0.5 v -0.5 h 0.5 0.504 0.496 v -0.5 h 0.5 0.5 0.5 0.504 0.996 2 3 0.5 4 v -0.5 h 0.5 5.5 6.004 0.996 4.5 0.5 2 3.5 3 2.5 5 1 6.5 0.504 6.496 0.5 v -0.496 h 5 3.5 1.5 0.504 0.496 0.5 0.5 0.5 v -0.504 h 0.496 0.504 0.5 v -0.5 h 0.5 0.5 0.496 v -0.5 h 0.504 0.5 v -0.5 h 0.5 0.5 v -0.504 h 0.496 0.504 v -0.496 h 0.5 0.5 v -0.5 h 0.5 0.496 0.504 v -0.5 h 0.5 0.496 v -0.5 h 0.501 0.5 v -0.504 h 0.5 0.5 v -0.496 h 0.5 0.5 0.5 v -0.5 h 0.5 0.5 v -0.5 h 0.5 0.5 v -0.5 h 0.5 0.5 0.5 0.5 0.5 1 1.5 0.5 v -0.504 M 755.137,574.91 h 0.504 0.496 v -0.5 h 0.504 0.5 0.496 0.504 0.496 0.504 v -0.496 h 0.5 0.496 0.504 0.496 0.5 0.504 v -0.504 h 0.496 0.504 0.496 0.5 v -0.5 h 0.504 0.496 0.504 0.496 v -0.5 h 0.5 0.504 0.496 0.504 0.496 v -0.5 h 0.5 0.504 0.496 0.5 0.5 0.5 v -0.504 h 0.504 0.496 0.5 0.5 0.5 v -0.496 h 0.504 0.496 0.5 0.5 0.5 0.504 v -0.5 h 0.496 0.5 0.5 0.5 0.504 0.496 0.5 v -0.5 h 0.5 0.5 0.496 0.504 0.5 v -0.5 h 0.5 0.5 0.496 0.504 0.5 v -0.504 h 0.5 0.5 0.496 0.504 0.5 0.5 0.5 v -0.496 h 0.496 0.504 0.5 0.496 0.504 0.496 0.504 v -0.5 h 0.5 0.496 0.504 0.496 0.504 0.5 0.496 0.504 v -0.5 h 0.496 0.504 0.5 0.496 0.504 0.496 v -0.5 h 0.504 0.5 0.496 0.504 0.496 0.5 v -0.504 h 0.504 0.496 0.504 0.496 v -0.496 h 0.5 0.504 0.496 0.504 0.496 v -0.504 h 0.5 0.504 0.496 0.504 v -0.496 h 0.496 0.5 0.504 0.496 0.5 v -0.5 h 0.5 0.5 0.504 v -0.504 h 0.496 0.5 0.5 0.5 0.504 v -0.496 h 0.496 0.5 0.5 0.5 v -0.504 h 0.504 0.496 0.5 v -0.496 h 0.5 0.5 0.504 0.496 v -0.504 h 0.5 0.5 0.5 0.496 0.504 0.5 v -0.5 h 0.5 0.5 0.496 v -0.496 h 0.504 0.5 0.5 v -0.504 h 0.5 0.496 0.504 0.5 v -0.496 h 0.496 0.504 0.496 0.504 v -0.504 h 0.5 0.496 0.504 0.496 v -0.5 h 0.504 0.5 0.496 v -0.496 h 0.504 0.496 0.504 v -0.504 h 0.5 0.496 v -0.496 h 0.504 0.496 0.504 v -0.504 h 0.5 0.496 0.504 v -0.5 h 0.496 0.5 v -0.496 h 0.504 0.496 0.504 0.496 0.5 v -0.504 h 0.504 0.496 0.504 0.496 v -0.496 h 0.5 0.504 0.496 0.504 0.496 v -0.504 h 0.5 0.504 0.496 0.5 0.5 v -0.5 h 0.5 0.504 0.496 0.5 0.5 v -0.5 h 0.5 0.504 0.496 v -0.5 h 0.5 0.5 0.5 0.504 0.496 0.5 M 653.637,601.91 h 1.004 0.496 v -0.496 h 0.504 0.496 1.004 0.496 0.504 v -0.504 h 0.496 1.004 v -0.5 h 0.496 0.504 0.496 0.504 0.996 v -0.5 h 0.504 0.496 v -0.5 h 0.504 0.5 1 v -0.504 h 0.496 0.5 0.504 0.496 0.504 0.496 v -0.496 h 0.5 1 0.504 0.496 v -0.5 h 0.5 0.504 0.496 v -0.5 h 0.504 v -0.5 h 0.496 0.5 0.504 0.496 v -1 h 0.504 0.496 0.5 0.504 0.496 0.5 v -0.5 h 0.5 0.5 v -0.5 h 0.504 0.496 0.5 v -0.5 h 0.5 0.5 0.504 0.496 v -0.504 h 0.5 0.5 0.5 v -0.496 h 0.504 0.496 v -0.5 h 0.5 0.5 v -1 h 0.5 0.504 0.496 v -0.504 -0.496 h 0.5 0.5 0.5 v -0.5 h 0.496 0.504 v -0.5 h 0.5 0.5 0.5 0.496 0.504 0.5 v -0.5 h 0.5 0.5 0.496 0.504 v -0.504 h 0.5 v -0.496 h 0.496 0.504 0.496 v -0.504 h 0.504 v -0.496 h 0.5 0.496 0.504 0.496 v -0.5 h 0.504 0.5 0.496 0.504 0.496 v -0.504 h 0.504 v -0.496 h 0.5 0.496 v -0.504 h 0.504 0.496 0.504 0.5 v -0.496 h 0.496 0.504 0.496 v -0.504 h 0.504 0.5 v -0.5 h 0.496 0.504 0.496 0.5 v -0.496 h 0.504 0.496 0.504 0.496 v -0.504 h 0.5 0.504 0.496 v -0.496 h 0.504 0.496 0.5 0.504 0.496 0.5 v -0.504 h 0.5 0.5 0.504 0.496 v -0.5 h 0.5 0.5 0.5 v -0.496 h 0.504 0.496 0.5 0.5 0.5 0.504 v -0.504 h 0.496 0.5 0.5 0.5 0.504 0.496 0.5 0.5 0.5 0.496 v -0.496 h 0.504 0.5 0.5 0.5 0.496 0.504 v -0.504 h 0.5 0.5 0.5 v -0.5 h 0.496 0.504 0.5 0.5 0.5 0.496 v -0.5 h 0.504 0.5 0.496 0.504 v -0.5 h 0.496 0.504 0.5 0.496 0.504 0.496 0.504 0.5 0.496 v -0.496 h 0.504 0.496 0.504 0.5 0.496 0.504 v -0.504 h 0.496 0.504 v -0.5 h 0.5 0.496 0.504 v -0.5 h 0.496 0.5 0.504 0.496 0.504 0.496 0.5 v -0.5 h 0.504 0.496 0.504 0.496 0.5 0.504 0.496 v -0.504 h 0.504 M 196.641,901.414 h 64 V 877.91 h 37.5 v -1.496 h 26.5 v -6.004 h 20.496 v -47 h 17.004 v -3.5 h 13.996 v -3 h 12.5 v -2.996 h 11.004 v -10 h 9.5 v -6.004 h 9 v -16.496 h 7.996 v -2.5 h 7.5 7.004 v -4 h 6 v -3.5 h 5.996 v -2.5 h 5.504 v -5 h 5.496 v -0.504 h 5 4.504 4.496 v -0.5 h 4.504 3.996 v -0.5 h 4 4.004 3.496 v -0.5 h 3.5 3.504 v -1.5 h 2.996 v -5.5 h 3.004 v -0.996 h 2.996 v -0.504 h 3.004 v -1.5 h 3 v -1 h 2.5 v -3.5 h 2.996 v -0.5 h 2.5 v -2.5 h 2.5 v -1 h 2.5 v -0.996 h 2.5 2.004 2.5 v -0.504 h 2 v -0.496 h 2.5 v -1.504 h 1.996 2.004 v -0.996 h 1.996 v -2.5 h 2.004 v -9.504 h 2 v -1 h 1.996 v -4.496 h 2.004 v -12.5 h 1.5 v -8.004 h 2 v -0.5 h 1.5 v -11 h 1.996 v -1.5 h 1.504 v -4.5 h 1.996 1.5 v -3.5 h 1.504 v -2 h 1.5 v -2.5 h 1.5 v -1.496 h 1.496 v -2.5 h 1.5 1.504 v -2.004 h 1.5 v -2.5 h 1.5 1.496 v -0.496 h 1.5 v -2.5 h 1 v -1.004 h 1.5 v -1.496 h 1.504 v -0.504 h 0.996 v -1.5 h 1.504 v -6.5 h 1.5 v -1 h 1 v -0.496 h 1.5 v -4.504 h 1 v -1 h 0.996 v -3 h 1.504 v -0.5 h 0.996 v -0.5 h 1.504 v -2.996 h 0.996 1 v -0.504 h 1.004 v -2.004 h 1.496 v -0.496 h 1.004 v -1 h 1 v -0.996 h 1 v -1.504 h 0.996 v -0.5 h 1 v -0.504 h 1.004 v -0.496 h 1 v -1.5 h 1 v -0.504 h 1 0.996 v -0.496 h 1.004 v -0.5 h 1 v -1 h 1 v -3.004 h 1 v -0.496 h 0.996 v -1 h 1.004 v -1.5 h 1 v -1.5 h 0.496 1.004 1 v -0.504 h 1 v -0.996 h 0.5 v -1.504 h 1 1 v -0.496 h 1 v -0.5 h 0.5 v -0.5 h 1 v -0.5 h 1 v -1 h 0.5 v -2.5 h 1 v -0.5 h 1 0.5 v -0.5 h 1 v -0.5 h 0.5 v -0.504 h 1 v -0.496 h 0.496 v -0.5 h 1.004 0.5 0.996 v -1 h 0.504 v -0.504 h 1 0.5 1 0.5 1 v -0.996 h 0.496 v -0.5 h 1.004 v -1.004 h 0.5 v -0.496 h 0.5 v -0.504 h 1 0.5 v -0.496 h 1 0.496 0.504 1 0.5 v -0.5 h 0.496" /><path
         id="path370"
         style="fill:none;stroke:#100f0d;stroke-width:5;stroke-linecap:butt;stroke-linejoin:miter;stroke-miterlimit:3.79999995;stroke-dasharray:none;stroke-opacity:1"
         d="M 196.641,954.91 V 198.906 H 2026.14" /></g></g></svg>
