<?xml version="1.0" encoding="utf-8"?>
<!-- Generator: Adobe Illustrator 24.0.3, SVG Export Plug-In . SVG Version: 6.00 Build 0)  -->
<svg version="1.1" id="Layer_1" xmlns="http://www.w3.org/2000/svg" xmlns:xlink="http://www.w3.org/1999/xlink" x="0px" y="0px"
	 viewBox="0 0 304.8 217.8" style="enable-background:new 0 0 304.8 217.8;" xml:space="preserve">
<style type="text/css">
	.st0{fill:#70BF41;}
	.st1{enable-background:new    ;}
	.st2{fill:#FFFFFF;}
	.st3{font-family:'Avenir-Medium';}
	.st4{font-size:16px;}
	.st5{fill:#F4F4F4;}
	.st6{fill:none;stroke:#FEFEFE;stroke-miterlimit:10;}
	.st7{fill:#808080;}
	.st8{fill:#D2D2D2;}
	.st9{font-family:'Consolas';}
	.st10{font-size:13.2079px;}
</style>
<path class="st0" d="M245.5,156.3H131.4c-6.5,0-11.7-5.3-11.7-11.7v-17.8c0-6.5,5.3-11.7,11.7-11.7h114.1c6.5,0,11.7,5.3,11.7,11.7
	v17.8C257.3,151,252,156.3,245.5,156.3z"/>
<text transform="matrix(1 0 0 1 155.8278 131.0899)" class="st1"><tspan x="0" y="0" class="st2 st3 st4">Fragment</tspan><tspan x="-13.6" y="19.2" class="st2 st3 st4">tcp:4:inOrder</tspan></text>
<g>
	<path class="st0" d="M167.8,84H53.7C47.2,84,42,78.8,42,72.3V54.5c0-6.5,5.3-11.7,11.7-11.7h114.1c6.5,0,11.7,5.3,11.7,11.7v17.8
		C179.6,78.8,174.3,84,167.8,84z"/>
	<text transform="matrix(1 0 0 1 78.146 58.8487)" class="st1"><tspan x="0" y="0" class="st2 st3 st4">Fragment</tspan><tspan x="-13.6" y="19.2" class="st2 st3 st4">tcp:8:inOrder</tspan></text>
</g>
<g>
	<line class="st2" x1="113.4" y1="13.5" x2="113.4" y2="42.7"/>
	<g>
		<g>
			<polygon class="st5" points="112.7,13.5 112.7,33.7 108.9,32.1 113.4,42.7 117.9,32.1 114.1,33.7 114.1,13.5 			"/>
		</g>
	</g>
</g>
<g>
	<path class="st2" d="M188.5,153.3"/>
	<path class="st6" d="M188.5,153.3"/>
</g>
<g>
	<line class="st2" x1="185.4" y1="157.3" x2="100.4" y2="187"/>
	<g>
		<g>
			<polygon class="st5" points="185.1,156.6 108.7,183.3 109,179.2 100.4,187 112,187.7 109.2,184.7 185.6,158 			"/>
		</g>
	</g>
</g>
<g>
	<line class="st7" x1="244.2" y1="198.4" x2="304.8" y2="198.1"/>
	<g>
		<g>
			<polygon class="st8" points="255.9,198.4 244.2,186.8 257.4,186.7 281.4,186.6 285.1,186.6 285.1,178.6 304.8,198.1 285.3,217.8 
				285.3,209.9 281.6,209.9 257.6,210 244.3,210.1 			"/>
		</g>
	</g>
</g>
<g>
	<line class="st2" x1="185.4" y1="157.3" x2="270.3" y2="187"/>
	<g>
		<g>
			<polygon class="st5" points="185.1,158 261.5,184.7 258.8,187.7 270.3,187 261.7,179.2 262,183.3 185.6,156.6 			"/>
		</g>
	</g>
</g>
<g>
	<line class="st7" x1="77.4" y1="197.8" x2="137.9" y2="197.4"/>
	<g>
		<g>
			<polygon class="st8" points="89,197.7 77.3,186.1 90.6,186.1 114.6,185.9 118.3,185.9 118.2,177.9 137.9,197.4 118.4,217.1 
				118.4,209.2 114.7,209.2 90.7,209.3 77.5,209.4 			"/>
		</g>
	</g>
</g>
<g>
	<line class="st7" x1="0.1" y1="124.5" x2="60.6" y2="124.2"/>
	<g>
		<g>
			<polygon class="st8" points="11.7,124.5 0,112.9 13.2,112.8 37.3,112.7 40.9,112.6 40.9,104.7 60.6,124.2 41.1,143.9 41.1,135.9 
				37.4,135.9 13.4,136.1 0.1,136.2 			"/>
		</g>
	</g>
</g>
<g>
	<line class="st2" x1="110" y1="84.3" x2="25" y2="113.9"/>
	<g>
		<g>
			<polygon class="st5" points="109.7,83.6 33.3,110.2 33.6,106.2 25,113.9 36.6,114.6 33.8,111.6 110.2,85 			"/>
		</g>
	</g>
</g>
<g>
	<line class="st2" x1="110" y1="84.3" x2="194.9" y2="113.9"/>
	<g>
		<g>
			<polygon class="st5" points="109.7,85 186.1,111.6 183.4,114.6 194.9,113.9 186.3,106.2 186.6,110.2 110.2,83.6 			"/>
		</g>
	</g>
</g>
<text transform="matrix(1 0 0 1 54.4999 10.8184)" class="st2 st9 st10">out:TCP:flags:PA</text>
</svg>
