<?xml version="1.0" encoding="utf-8"?>
<!-- Generator: Adobe Illustrator 24.0.3, SVG Export Plug-In . SVG Version: 6.00 Build 0)  -->
<svg version="1.1" id="Layer_1" xmlns="http://www.w3.org/2000/svg" xmlns:xlink="http://www.w3.org/1999/xlink" x="0px" y="0px"
	 viewBox="0 0 300.1 292" style="enable-background:new 0 0 300.1 292;" xml:space="preserve">
<style type="text/css">
	.st0{fill:#70BF41;}
	.st1{fill:#FFFFFF;}
	.st2{font-family:'Avenir-Medium';}
	.st3{font-size:13.2079px;}
	.st4{fill:#51A7F9;}
	.st5{fill:#F4F4F4;}
	.st6{fill:#F39019;}
	.st7{fill:none;stroke:#FEFEFE;stroke-miterlimit:10;}
	.st8{fill:#808080;}
	.st9{fill:#D2D2D2;}
	.st10{fill:none;}
	.st11{font-family:'Consolas';}
</style>
<g>
	<path class="st0" d="M165.1,232.4H51c-6.5,0-11.7-5.3-11.7-11.7v-17.8c0-6.5,5.3-11.7,11.7-11.7h114.1c6.5,0,11.7,5.3,11.7,11.7
		v17.8C176.8,227.1,171.6,232.4,165.1,232.4z"/>
	<text transform="matrix(1 0 0 1 81.9632 214.658)" class="st1 st2 st3">Fragment</text>
</g>
<g>
	<path class="st4" d="M245,91.3H130.9c-6.5,0-11.7-5.3-11.7-11.7V61.8c0-6.5,5.3-11.7,11.7-11.7H245c6.5,0,11.7,5.3,11.7,11.7v17.8
		C256.7,86.1,251.5,91.3,245,91.3z"/>
	<text transform="matrix(1 0 0 1 159.4275 73.6429)" class="st1 st2 st3">Duplicate</text>
</g>
<path class="st4" d="M187.9,91.3"/>
<g>
	<line class="st1" x1="188.9" y1="91.1" x2="104" y2="120.8"/>
	<g>
		<g>
			<polygon class="st5" points="188.7,90.4 112.3,117.1 112.5,113 104,120.8 115.5,121.5 112.8,118.5 189.1,91.8 			"/>
		</g>
	</g>
</g>
<g>
	<path class="st6" d="M165.1,161.8H51c-6.5,0-11.7-5.3-11.7-11.7v-17.8c0-6.5,5.3-11.7,11.7-11.7h114.1c6.5,0,11.7,5.3,11.7,11.7
		v17.8C176.8,156.6,171.6,161.8,165.1,161.8z"/>
	<text transform="matrix(1 0 0 1 85.7903 144.1502)" class="st1 st2 st3">Tamper</text>
</g>
<g>
	<line class="st1" x1="108.1" y1="161.8" x2="108.1" y2="191.1"/>
	<g>
		<g>
			<polygon class="st5" points="107.3,161.8 107.3,182 103.6,180.4 108.1,191.1 112.5,180.4 108.8,182 108.8,161.8 			"/>
		</g>
	</g>
</g>
<g>
	<path class="st1" d="M108.1,232.4"/>
	<path class="st7" d="M108.1,232.4"/>
</g>
<g>
	<path class="st1" d="M287.3,121"/>
	<path class="st7" d="M287.3,121"/>
</g>
<g>
	<path class="st1" d="M187.9,91.3"/>
	<path class="st7" d="M187.9,91.3"/>
</g>
<g>
	<line class="st8" x1="239.5" y1="131.1" x2="300.1" y2="130.7"/>
	<g>
		<g>
			<polygon class="st9" points="251.2,131 239.5,119.5 252.7,119.4 276.7,119.2 280.4,119.2 280.3,111.3 300.1,130.8 280.6,150.5 
				280.5,142.5 276.8,142.5 252.8,142.7 239.6,142.7 			"/>
		</g>
	</g>
</g>
<g>
	<line class="st1" x1="187.9" y1="91.1" x2="272.9" y2="120.8"/>
	<g>
		<g>
			<polygon class="st5" points="187.7,91.8 264.1,118.5 261.3,121.5 272.9,120.8 264.3,113 264.6,117.1 188.2,90.4 			"/>
		</g>
	</g>
</g>
<g>
	<line class="st1" x1="108.1" y1="232.2" x2="23.1" y2="261.8"/>
	<g>
		<g>
			<polygon class="st5" points="107.8,231.5 31.4,258.1 31.7,254.1 23.1,261.8 34.7,262.5 31.9,259.5 108.3,232.8 			"/>
		</g>
	</g>
</g>
<g>
	<line class="st8" x1="166.9" y1="272.6" x2="227.5" y2="272.2"/>
	<g>
		<g>
			<polygon class="st9" points="178.6,272.5 166.9,261 180.1,260.9 204.1,260.7 207.8,260.7 207.8,252.8 227.5,272.3 208,292 
				207.9,284 204.2,284 180.2,284.2 167,284.2 			"/>
		</g>
	</g>
</g>
<g>
	<line class="st1" x1="108.1" y1="232.2" x2="193" y2="261.8"/>
	<g>
		<g>
			<polygon class="st5" points="107.8,232.8 184.2,259.5 181.5,262.5 193,261.8 184.4,254.1 184.7,258.1 108.3,231.5 			"/>
		</g>
	</g>
</g>
<g>
	<line class="st8" x1="0.1" y1="272.6" x2="60.6" y2="272.3"/>
	<g>
		<g>
			<polygon class="st9" points="11.7,272.6 0,261 13.2,260.9 37.3,260.8 40.9,260.7 40.9,252.8 60.6,272.3 41.1,292 41.1,284 
				37.4,284.1 13.4,284.2 0.1,284.3 			"/>
		</g>
	</g>
</g>
<g>
	<line class="st1" x1="190.7" y1="20.8" x2="190.7" y2="50.1"/>
	<g>
		<g>
			<polygon class="st5" points="190,20.8 190,41 186.2,39.4 190.7,50.1 195.2,39.4 191.5,41 191.5,20.8 			"/>
		</g>
	</g>
</g>
<g>
	<polygon class="st10" points="119.1,0 136.2,0 136.2,0 119.1,0 	"/>
</g>
<text transform="matrix(1 0 0 1 136.1744 18.3441)" class="st1 st11 st3">out:TCP:flags:PA</text>
</svg>
